<svg width="423" height="265" xmlns="http://www.w3.org/2000/svg" xmlns:xlink="http://www.w3.org/1999/xlink" overflow="hidden"><defs><clipPath id="clip0"><rect x="0" y="0" width="423" height="265"/></clipPath><clipPath id="clip1"><rect x="51" y="13" width="359" height="196"/></clipPath><clipPath id="clip2"><rect x="51" y="13" width="359" height="196"/></clipPath><clipPath id="clip3"><rect x="51" y="13" width="359" height="196"/></clipPath><clipPath id="clip4"><rect x="51" y="13" width="359" height="196"/></clipPath><clipPath id="clip5"><rect x="357" y="87" width="46" height="16"/></clipPath><clipPath id="clip6"><rect x="358" y="18" width="47" height="19"/></clipPath></defs><g clip-path="url(#clip0)"><path d="M1444.55 1499.63 1867.55 1499.63 1867.55 1763.9 1444.55 1763.9Z" fill="#FFFFFF" transform="matrix(1 0 0 1.00275 -1444.55 -1503.75)"/><path d="M1495.69 1687.58 1853.85 1687.58M1495.69 1668.31 1853.85 1668.31M1495.69 1649.05 1853.85 1649.05M1495.69 1629.51 1853.85 1629.51M1495.69 1610.25 1853.85 1610.25M1495.69 1590.71 1853.85 1590.71M1495.69 1571.45 1853.85 1571.45M1495.69 1551.91 1853.85 1551.91M1495.69 1532.65 1853.85 1532.65M1495.69 1513.33 1853.85 1513.33" stroke="#D9D9D9" stroke-width="0.932689" stroke-linejoin="round" stroke-miterlimit="10" fill="none" transform="matrix(1 0 0 1.00275 -1444.55 -1503.75)"/><path d="M1495.69 1513.33 1853.85 1513.33 1853.85 1707.06 1495.69 1707.06Z" stroke="#000000" stroke-width="0.932689" stroke-linejoin="round" stroke-miterlimit="10" fill="none" transform="matrix(1 0 0 1.00275 -1444.55 -1503.75)"/><path d="M0 0 9.792e-05 193.728" stroke="#000000" stroke-width="0.932689" stroke-linejoin="round" stroke-miterlimit="10" fill="none" fill-rule="evenodd" transform="matrix(1 0 0 -1.00275 51.1453 208.001)"/><path d="M1492.98 1707.06 1498.14 1707.06M1492.98 1687.58 1498.14 1687.58M1492.98 1668.31 1498.14 1668.31M1492.98 1649.05 1498.14 1649.05M1492.98 1629.51 1498.14 1629.51M1492.98 1610.25 1498.14 1610.25M1492.98 1590.71 1498.14 1590.71M1492.98 1571.45 1498.14 1571.45M1492.98 1551.91 1498.14 1551.91M1492.98 1532.65 1498.14 1532.65M1492.98 1513.33 1498.14 1513.33" stroke="#000000" stroke-width="0.932689" stroke-linejoin="round" stroke-miterlimit="10" fill="none" transform="matrix(1 0 0 1.00275 -1444.55 -1503.75)"/><path d="M1495.69 1707.06 1853.85 1707.06" stroke="#000000" stroke-width="0.932689" stroke-linejoin="round" stroke-miterlimit="10" fill="none" fill-rule="evenodd" transform="matrix(1 0 0 1.00275 -1444.55 -1503.75)"/><path d="M1495.69 1704.62 1495.69 1709.77M1517.99 1704.62 1517.99 1709.77M1540.24 1704.62 1540.24 1709.77M1562.76 1704.62 1562.76 1709.77M1585.01 1704.62 1585.01 1709.77M1607.53 1704.62 1607.53 1709.77M1629.78 1704.62 1629.78 1709.77M1652.3 1704.62 1652.3 1709.77M1674.55 1704.62 1674.55 1709.77M1697.08 1704.62 1697.08 1709.77M1719.33 1704.62 1719.33 1709.77M1741.85 1704.62 1741.85 1709.77M1764.09 1704.62 1764.09 1709.77M1786.62 1704.62 1786.62 1709.77M1808.87 1704.62 1808.87 1709.77M1831.39 1704.62 1831.39 1709.77M1853.85 1704.62 1853.85 1709.77" stroke="#000000" stroke-width="0.932689" stroke-linejoin="round" stroke-miterlimit="10" fill="none" transform="matrix(1 0 0 1.00275 -1444.55 -1503.75)"/><g clip-path="url(#clip1)"><path d="M1506.68 1707.19 1529.25 1707.19 1551.5 1707.19 1574.02 1707.19 1596.27 1707.19 1618.8 1707.19 1641.04 1682.56 1663.56 1630.19 1685.81 1613.04 1708.28 1639.15" stroke="#000000" stroke-width="2.79807" stroke-linecap="round" stroke-linejoin="round" stroke-miterlimit="10" fill="none" transform="matrix(1 0 0 1.00275 -1444.55 -1503.75)"/></g><path d="M1509.67 1706.98C1509.67 1708.63 1508.34 1709.96 1506.69 1709.96 1505.04 1709.96 1503.7 1708.63 1503.7 1706.98 1503.7 1705.33 1505.04 1704 1506.69 1704 1508.34 1704 1509.67 1705.33 1509.67 1706.98Z" stroke="#000000" stroke-width="0.932689" stroke-linejoin="round" stroke-miterlimit="10" transform="matrix(1 0 0 1.00275 -1444.55 -1503.75)"/><path d="M1531.92 1706.98C1531.92 1708.63 1530.59 1709.96 1528.94 1709.96 1527.29 1709.96 1525.95 1708.63 1525.95 1706.98 1525.95 1705.33 1527.29 1704 1528.94 1704 1530.59 1704 1531.92 1705.33 1531.92 1706.98Z" stroke="#000000" stroke-width="0.932689" stroke-linejoin="round" stroke-miterlimit="10" transform="matrix(1 0 0 1.00275 -1444.55 -1503.75)"/><path d="M1554.44 1706.98C1554.44 1708.63 1553.11 1709.96 1551.46 1709.96 1549.81 1709.96 1548.47 1708.63 1548.47 1706.98 1548.47 1705.33 1549.81 1704 1551.46 1704 1553.11 1704 1554.44 1705.33 1554.44 1706.98Z" stroke="#000000" stroke-width="0.932689" stroke-linejoin="round" stroke-miterlimit="10" transform="matrix(1 0 0 1.00275 -1444.55 -1503.75)"/><path d="M1576.69 1706.98C1576.69 1708.63 1575.36 1709.96 1573.71 1709.96 1572.06 1709.96 1570.72 1708.63 1570.72 1706.98 1570.72 1705.33 1572.06 1704 1573.71 1704 1575.36 1704 1576.69 1705.33 1576.69 1706.98Z" stroke="#000000" stroke-width="0.932689" stroke-linejoin="round" stroke-miterlimit="10" transform="matrix(1 0 0 1.00275 -1444.55 -1503.75)"/><path d="M1599.21 1706.98C1599.21 1708.63 1597.88 1709.96 1596.23 1709.96 1594.58 1709.96 1593.24 1708.63 1593.24 1706.98 1593.24 1705.33 1594.58 1704 1596.23 1704 1597.88 1704 1599.21 1705.33 1599.21 1706.98Z" stroke="#000000" stroke-width="0.932689" stroke-linejoin="round" stroke-miterlimit="10" transform="matrix(1 0 0 1.00275 -1444.55 -1503.75)"/><path d="M1621.46 1706.98C1621.46 1708.63 1620.13 1709.96 1618.48 1709.96 1616.83 1709.96 1615.49 1708.63 1615.49 1706.98 1615.49 1705.33 1616.83 1704 1618.48 1704 1620.13 1704 1621.46 1705.33 1621.46 1706.98Z" stroke="#000000" stroke-width="0.932689" stroke-linejoin="round" stroke-miterlimit="10" transform="matrix(1 0 0 1.00275 -1444.55 -1503.75)"/><path d="M1643.98 1682.56C1643.98 1684.21 1642.65 1685.55 1641 1685.55 1639.35 1685.55 1638.01 1684.21 1638.01 1682.56 1638.01 1680.91 1639.35 1679.58 1641 1679.58 1642.65 1679.58 1643.98 1680.91 1643.98 1682.56Z" stroke="#000000" stroke-width="0.932689" stroke-linejoin="round" stroke-miterlimit="10" transform="matrix(1 0 0 1.00275 -1444.55 -1503.75)"/><path d="M1666.23 1629.92C1666.23 1631.57 1664.89 1632.91 1663.24 1632.91 1661.6 1632.91 1660.26 1631.57 1660.26 1629.92 1660.26 1628.27 1661.6 1626.94 1663.24 1626.94 1664.89 1626.94 1666.23 1628.27 1666.23 1629.92Z" stroke="#000000" stroke-width="0.932689" stroke-linejoin="round" stroke-miterlimit="10" transform="matrix(1 0 0 1.00275 -1444.55 -1503.75)"/><path d="M1688.75 1613.1C1688.75 1614.75 1687.41 1616.09 1685.76 1616.09 1684.12 1616.09 1682.78 1614.75 1682.78 1613.1 1682.78 1611.45 1684.12 1610.12 1685.76 1610.12 1687.41 1610.12 1688.75 1611.45 1688.75 1613.1Z" stroke="#000000" stroke-width="0.932689" stroke-linejoin="round" stroke-miterlimit="10" transform="matrix(1 0 0 1.00275 -1444.55 -1503.75)"/><path d="M1711 1639.15C1711 1640.79 1709.66 1642.13 1708.01 1642.13 1706.37 1642.13 1705.03 1640.79 1705.03 1639.15 1705.03 1637.5 1706.37 1636.16 1708.01 1636.16 1709.66 1636.16 1711 1637.5 1711 1639.15Z" stroke="#000000" stroke-width="0.932689" stroke-linejoin="round" stroke-miterlimit="10" transform="matrix(1 0 0 1.00275 -1444.55 -1503.75)"/><g clip-path="url(#clip2)"><path d="M1753.05 1580.48 1775.35 1561.81 1797.88 1551.23 1820.13 1542.28 1842.59 1534.63" stroke="#00B050" stroke-width="2.79807" stroke-linecap="round" stroke-linejoin="round" stroke-miterlimit="10" stroke-dasharray="5.59614 5.59614" fill="none" transform="matrix(1 0 0 1.00275 -1444.55 -1503.75)"/></g><path d="M1755.77 1580.27C1755.77 1581.92 1754.43 1583.25 1752.78 1583.25 1751.14 1583.25 1749.8 1581.92 1749.8 1580.27 1749.8 1578.62 1751.14 1577.29 1752.78 1577.29 1754.43 1577.29 1755.77 1578.62 1755.77 1580.27Z" stroke="#00B050" stroke-width="0.932689" stroke-linejoin="round" stroke-miterlimit="10" fill="#00B050" transform="matrix(1 0 0 1.00275 -1444.55 -1503.75)"/><path d="M1778.29 1561.82C1778.29 1563.47 1776.95 1564.8 1775.3 1564.8 1773.66 1564.8 1772.32 1563.47 1772.32 1561.82 1772.32 1560.17 1773.66 1558.83 1775.3 1558.83 1776.95 1558.83 1778.29 1560.17 1778.29 1561.82Z" stroke="#00B050" stroke-width="0.932689" stroke-linejoin="round" stroke-miterlimit="10" fill="#00B050" transform="matrix(1 0 0 1.00275 -1444.55 -1503.75)"/><path d="M1800.54 1550.97C1800.54 1552.61 1799.2 1553.95 1797.55 1553.95 1795.9 1553.95 1794.57 1552.61 1794.57 1550.97 1794.57 1549.32 1795.9 1547.98 1797.55 1547.98 1799.2 1547.98 1800.54 1549.32 1800.54 1550.97Z" stroke="#00B050" stroke-width="0.932689" stroke-linejoin="round" stroke-miterlimit="10" fill="#00B050" transform="matrix(1 0 0 1.00275 -1444.55 -1503.75)"/><path d="M1823.06 1542.01C1823.06 1543.66 1821.72 1545 1820.07 1545 1818.43 1545 1817.09 1543.66 1817.09 1542.01 1817.09 1540.36 1818.43 1539.03 1820.07 1539.03 1821.72 1539.03 1823.06 1540.36 1823.06 1542.01Z" stroke="#00B050" stroke-width="0.932689" stroke-linejoin="round" stroke-miterlimit="10" fill="#00B050" transform="matrix(1 0 0 1.00275 -1444.55 -1503.75)"/><path d="M1845.31 1534.42C1845.31 1536.06 1843.97 1537.4 1842.32 1537.4 1840.67 1537.4 1839.34 1536.06 1839.34 1534.42 1839.34 1532.77 1840.67 1531.43 1842.32 1531.43 1843.97 1531.43 1845.31 1532.77 1845.31 1534.42Z" stroke="#00B050" stroke-width="0.932689" stroke-linejoin="round" stroke-miterlimit="10" fill="#00B050" transform="matrix(1 0 0 1.00275 -1444.55 -1503.75)"/><g clip-path="url(#clip3)"><path d="M1506.68 1707.19 1529.25 1707.19 1551.5 1707.19 1574.02 1707.19 1596.27 1707.19 1618.8 1707.19 1641.04 1702.1 1663.56 1696.67 1685.81 1698.57 1708.28 1691.19" stroke="#000000" stroke-width="2.79807" stroke-linecap="round" stroke-linejoin="round" stroke-miterlimit="10" fill="none" transform="matrix(1 0 0 1.00275 -1444.55 -1503.75)"/></g><path d="M1509.67 1706.98C1509.67 1708.63 1508.34 1709.96 1506.69 1709.96 1505.04 1709.96 1503.7 1708.63 1503.7 1706.98 1503.7 1705.33 1505.04 1704 1506.69 1704 1508.34 1704 1509.67 1705.33 1509.67 1706.98Z" stroke="#000000" stroke-width="0.932689" stroke-linejoin="round" stroke-miterlimit="10" transform="matrix(1 0 0 1.00275 -1444.55 -1503.75)"/><path d="M1531.92 1706.98C1531.92 1708.63 1530.59 1709.96 1528.94 1709.96 1527.29 1709.96 1525.95 1708.63 1525.95 1706.98 1525.95 1705.33 1527.29 1704 1528.94 1704 1530.59 1704 1531.92 1705.33 1531.92 1706.98Z" stroke="#000000" stroke-width="0.932689" stroke-linejoin="round" stroke-miterlimit="10" transform="matrix(1 0 0 1.00275 -1444.55 -1503.75)"/><path d="M1554.44 1706.98C1554.44 1708.63 1553.11 1709.96 1551.46 1709.96 1549.81 1709.96 1548.47 1708.63 1548.47 1706.98 1548.47 1705.33 1549.81 1704 1551.46 1704 1553.11 1704 1554.44 1705.33 1554.44 1706.98Z" stroke="#000000" stroke-width="0.932689" stroke-linejoin="round" stroke-miterlimit="10" transform="matrix(1 0 0 1.00275 -1444.55 -1503.75)"/><path d="M1576.69 1706.98C1576.69 1708.63 1575.36 1709.96 1573.71 1709.96 1572.06 1709.96 1570.72 1708.63 1570.72 1706.98 1570.72 1705.33 1572.06 1704 1573.71 1704 1575.36 1704 1576.69 1705.33 1576.69 1706.98Z" stroke="#000000" stroke-width="0.932689" stroke-linejoin="round" stroke-miterlimit="10" transform="matrix(1 0 0 1.00275 -1444.55 -1503.75)"/><path d="M1599.21 1706.98C1599.21 1708.63 1597.88 1709.96 1596.23 1709.96 1594.58 1709.96 1593.24 1708.63 1593.24 1706.98 1593.24 1705.33 1594.58 1704 1596.23 1704 1597.88 1704 1599.21 1705.33 1599.21 1706.98Z" stroke="#000000" stroke-width="0.932689" stroke-linejoin="round" stroke-miterlimit="10" transform="matrix(1 0 0 1.00275 -1444.55 -1503.75)"/><path d="M1621.46 1706.98C1621.46 1708.63 1620.13 1709.96 1618.48 1709.96 1616.83 1709.96 1615.49 1708.63 1615.49 1706.98 1615.49 1705.33 1616.83 1704 1618.48 1704 1620.13 1704 1621.46 1705.33 1621.46 1706.98Z" stroke="#000000" stroke-width="0.932689" stroke-linejoin="round" stroke-miterlimit="10" transform="matrix(1 0 0 1.00275 -1444.55 -1503.75)"/><path d="M1643.98 1702.1C1643.98 1703.74 1642.65 1705.08 1641 1705.08 1639.35 1705.08 1638.01 1703.74 1638.01 1702.1 1638.01 1700.45 1639.35 1699.11 1641 1699.11 1642.65 1699.11 1643.98 1700.45 1643.98 1702.1Z" stroke="#000000" stroke-width="0.932689" stroke-linejoin="round" stroke-miterlimit="10" transform="matrix(1 0 0 1.00275 -1444.55 -1503.75)"/><path d="M1666.23 1696.67C1666.23 1698.32 1664.89 1699.65 1663.24 1699.65 1661.6 1699.65 1660.26 1698.32 1660.26 1696.67 1660.26 1695.02 1661.6 1693.68 1663.24 1693.68 1664.89 1693.68 1666.23 1695.02 1666.23 1696.67Z" stroke="#000000" stroke-width="0.932689" stroke-linejoin="round" stroke-miterlimit="10" transform="matrix(1 0 0 1.00275 -1444.55 -1503.75)"/><path d="M1688.75 1698.57C1688.75 1700.22 1687.41 1701.55 1685.76 1701.55 1684.12 1701.55 1682.78 1700.22 1682.78 1698.57 1682.78 1696.92 1684.12 1695.58 1685.76 1695.58 1687.41 1695.58 1688.75 1696.92 1688.75 1698.57Z" stroke="#000000" stroke-width="0.932689" stroke-linejoin="round" stroke-miterlimit="10" transform="matrix(1 0 0 1.00275 -1444.55 -1503.75)"/><path d="M1711 1690.97C1711 1692.62 1709.66 1693.96 1708.01 1693.96 1706.37 1693.96 1705.03 1692.62 1705.03 1690.97 1705.03 1689.32 1706.37 1687.99 1708.01 1687.99 1709.66 1687.99 1711 1689.32 1711 1690.97Z" stroke="#000000" stroke-width="0.932689" stroke-linejoin="round" stroke-miterlimit="10" transform="matrix(1 0 0 1.00275 -1444.55 -1503.75)"/><g clip-path="url(#clip4)"><path d="M1753.05 1678.43 1775.35 1668.18 1797.88 1635.08 1820.13 1612.01 1842.59 1592.15" stroke="#00B050" stroke-width="2.79807" stroke-linecap="round" stroke-linejoin="round" stroke-miterlimit="10" stroke-dasharray="5.59614 5.59614" fill="none" transform="matrix(1 0 0 1.00275 -1444.55 -1503.75)"/></g><path d="M1755.77 1678.49C1755.77 1680.14 1754.43 1681.48 1752.78 1681.48 1751.14 1681.48 1749.8 1680.14 1749.8 1678.49 1749.8 1676.84 1751.14 1675.51 1752.78 1675.51 1754.43 1675.51 1755.77 1676.84 1755.77 1678.49Z" stroke="#00B050" stroke-width="0.932689" stroke-linejoin="round" stroke-miterlimit="10" fill="#00B050" transform="matrix(1 0 0 1.00275 -1444.55 -1503.75)"/><path d="M1778.29 1668.18C1778.29 1669.83 1776.95 1671.16 1775.3 1671.16 1773.66 1671.16 1772.32 1669.83 1772.32 1668.18 1772.32 1666.53 1773.66 1665.2 1775.3 1665.2 1776.95 1665.2 1778.29 1666.53 1778.29 1668.18Z" stroke="#00B050" stroke-width="0.932689" stroke-linejoin="round" stroke-miterlimit="10" fill="#00B050" transform="matrix(1 0 0 1.00275 -1444.55 -1503.75)"/><path d="M1800.54 1634.81C1800.54 1636.45 1799.2 1637.79 1797.55 1637.79 1795.9 1637.79 1794.57 1636.45 1794.57 1634.81 1794.57 1633.16 1795.9 1631.82 1797.55 1631.82 1799.2 1631.82 1800.54 1633.16 1800.54 1634.81Z" stroke="#00B050" stroke-width="0.932689" stroke-linejoin="round" stroke-miterlimit="10" fill="#00B050" transform="matrix(1 0 0 1.00275 -1444.55 -1503.75)"/><path d="M1823.06 1612.02C1823.06 1613.66 1821.72 1615 1820.07 1615 1818.43 1615 1817.09 1613.66 1817.09 1612.02 1817.09 1610.37 1818.43 1609.03 1820.07 1609.03 1821.72 1609.03 1823.06 1610.37 1823.06 1612.02Z" stroke="#00B050" stroke-width="0.932689" stroke-linejoin="round" stroke-miterlimit="10" fill="#00B050" transform="matrix(1 0 0 1.00275 -1444.55 -1503.75)"/><path d="M1845.31 1591.94C1845.31 1593.58 1843.97 1594.92 1842.32 1594.92 1840.67 1594.92 1839.34 1593.58 1839.34 1591.94 1839.34 1590.29 1840.67 1588.95 1842.32 1588.95 1843.97 1588.95 1845.31 1590.29 1845.31 1591.94Z" stroke="#00B050" stroke-width="0.932689" stroke-linejoin="round" stroke-miterlimit="10" fill="#00B050" transform="matrix(1 0 0 1.00275 -1444.55 -1503.75)"/><text font-family="Times New Roman,Times New Roman_MSFontService,sans-serif" font-weight="400" font-size="32" transform="matrix(0.271328 0 0 0.272074 39.291 211)">0<tspan font-size="32" x="-16.04" y="-73.5094">10</tspan><tspan font-size="32" x="-16.04" y="-143.343">20</tspan><tspan font-size="32" x="-16.04" y="-213.177">30</tspan><tspan font-size="32" x="-16.04" y="-286.687">40</tspan><tspan font-size="32" x="-16.04" y="-356.521">50</tspan><tspan font-size="32" x="-16.04" y="-430.03">60</tspan><tspan font-size="32" x="-16.04" y="-499.864">70</tspan><tspan font-size="32" x="-16.04" y="-573.374">80</tspan><tspan font-size="32" x="-16.04" y="-643.208">90</tspan><tspan font-size="32" x="-32.08" y="-716.717">100</tspan></text><text font-family="Times New Roman,Times New Roman_MSFontService,sans-serif" font-weight="400" font-size="32" transform="matrix(0.191858 0.192385 -0.191858 0.192385 60.091 219)">2015<tspan font-size="32" x="58.3363" y="-58.3363">2016</tspan><tspan font-size="32" x="116.673" y="-116.673">2017</tspan><tspan font-size="32" x="175.009" y="-175.009">2018</tspan><tspan font-size="32" x="233.345" y="-233.345">2019</tspan><tspan font-size="32" x="291.681" y="-291.681">2020</tspan><tspan font-size="32" x="350.018" y="-350.018">2021</tspan><tspan font-size="32" x="408.354" y="-408.354">2022</tspan><tspan font-size="32" x="466.69" y="-466.69">2023</tspan><tspan font-size="32" x="525.027" y="-525.027">2024</tspan><tspan font-size="32" x="641.699" y="-641.699">2030</tspan><tspan font-size="32" x="700.035" y="-700.035">2035</tspan><tspan font-size="32" x="758.372" y="-758.372">2040</tspan><tspan font-size="32" x="816.708" y="-816.708">2045</tspan><tspan font-size="32" x="875.044" y="-875.044">2050</tspan></text><text font-family="Times New Roman,Times New Roman_MSFontService,sans-serif" font-weight="400" font-size="37" transform="matrix(1.6614e-17 -0.272074 0.271328 1.66597e-17 24.642 178)">RES share in total generation <tspan font-size="37" x="433.706" y="-2.65568e-14">[%]</tspan></text><path d="M1588.62 1747.89 1619.83 1747.89" stroke="#000000" stroke-width="2.79807" stroke-linecap="round" stroke-linejoin="round" stroke-miterlimit="10" fill="none" fill-rule="evenodd" transform="matrix(1 0 0 1.00275 -1444.55 -1503.75)"/><path d="M1606.26 1747.76C1606.26 1749.03 1605.23 1750.06 1603.95 1750.06 1602.68 1750.06 1601.65 1749.03 1601.65 1747.76 1601.65 1746.49 1602.68 1745.45 1603.95 1745.45 1605.23 1745.45 1606.26 1746.49 1606.26 1747.76Z" stroke="#000000" stroke-width="0.932689" stroke-linejoin="round" stroke-miterlimit="10" transform="matrix(1 0 0 1.00275 -1444.55 -1503.75)"/><text font-family="Times New Roman,Times New Roman_MSFontService,sans-serif" font-weight="400" font-size="32" transform="matrix(0.271328 0 0 0.272074 178.805 252)">Historical</text><path d="M1671.11 1747.89 1702.31 1747.89" stroke="#00B050" stroke-width="2.79807" stroke-linecap="round" stroke-linejoin="round" stroke-miterlimit="10" stroke-dasharray="5.59614 5.59614" fill="none" fill-rule="evenodd" transform="matrix(1 0 0 1.00275 -1444.55 -1503.75)"/><path d="M1688.74 1747.76C1688.74 1749.03 1687.71 1750.06 1686.44 1750.06 1685.17 1750.06 1684.13 1749.03 1684.13 1747.76 1684.13 1746.49 1685.17 1745.45 1686.44 1745.45 1687.71 1745.45 1688.74 1746.49 1688.74 1747.76Z" stroke="#00B050" stroke-width="0.932689" stroke-linejoin="round" stroke-miterlimit="10" fill="#00B050" transform="matrix(1 0 0 1.00275 -1444.55 -1503.75)"/><text font-family="Times New Roman,Times New Roman_MSFontService,sans-serif" font-weight="400" font-size="32" transform="matrix(0.271328 0 0 0.272074 261.329 252)">Future</text><g clip-path="url(#clip5)"><text font-family="Times New Roman,Times New Roman_MSFontService,sans-serif" font-weight="400" font-size="37" transform="matrix(0.271328 0 0 0.272074 366.463 101)">TX</text></g><g clip-path="url(#clip6)"><text font-family="Times New Roman,Times New Roman_MSFontService,sans-serif" font-weight="400" font-size="37" transform="matrix(0.271328 0 0 0.272074 367.798 32)">DE</text></g></g></svg>